Coordinates
version=1
nRows=60
nColumns=12
inDegrees=yes

Units are S.I. units (second, meters, Newtons, ...)
Angles are in degrees

endheader
time	SC_y	SC_z	SC_x	AC_y	AC_z	AC_x	GH_y	GH_z	GH_yy	EL_x	PS_y
       0.0              -56.95          10.36          76.55          59.49         -17.03         -14.53         -78.84          75.91          79.44          129.2          29.55
 0.0001945              -56.95          10.36          76.55          59.49         -17.03         -14.53         -78.85          75.92          79.42          129.2          29.57
 0.0003889              -56.95          10.36          76.54          59.49         -17.02         -14.52         -78.86          75.92          79.39          129.2          29.59
 0.0005834              -56.95          10.36          76.54          59.48         -17.02         -14.52         -78.88          75.92          79.37          129.2           29.6
 0.0007779              -56.95          10.36          76.54          59.48         -17.02         -14.51          -78.9          75.92          79.34          129.2          29.62
 0.0009723              -56.95          10.35          76.54          59.47         -17.01         -14.51         -78.91          75.93          79.32          129.2          29.64
  0.001167              -56.95          10.35          76.53          59.47         -17.01          -14.5         -78.93          75.93          79.29          129.2          29.67
  0.001361              -56.94          10.35          76.53          59.46         -17.01          -14.5         -78.95          75.93          79.25          129.2          29.69
  0.001556              -56.94          10.34          76.53          59.46          -17.0         -14.49         -78.97          75.93          79.22          129.2          29.72
   0.00175              -56.94          10.34          76.52          59.45          -17.0         -14.49         -78.99          75.94          79.18          129.1          29.74
  0.001945              -56.94          10.34          76.52          59.45         -16.99         -14.48         -79.02          75.94          79.14          129.1          29.77
  0.002139              -56.94          10.33          76.52          59.44         -16.99         -14.47         -79.04          75.94           79.1          129.1           29.8
  0.002334              -56.94          10.33          76.51          59.43         -16.98         -14.46         -79.07          75.95          79.05          129.1          29.84
  0.002528              -56.94          10.32          76.51          59.42         -16.98         -14.46          -79.1          75.95           79.0          129.1          29.87
  0.002722              -56.93          10.32           76.5          59.41         -16.97         -14.45         -79.13          75.96          78.95          129.0          29.91
  0.002917              -56.93          10.31           76.5           59.4         -16.96         -14.44         -79.17          75.96          78.89          129.0          29.96
  0.003111              -56.93          10.31          76.49          59.39         -16.95         -14.43          -79.2          75.97          78.83          129.0           30.0
  0.003306              -56.93           10.3          76.49          59.38         -16.95         -14.41         -79.25          75.97          78.76          129.0          30.05
    0.0035              -56.92           10.3          76.48          59.37         -16.94          -14.4         -79.29          75.98          78.69          128.9          30.11
  0.003695              -56.92          10.29          76.47          59.36         -16.93         -14.39         -79.34          75.99           78.6          128.9          30.17
  0.003889              -56.92          10.28          76.46          59.34         -16.92         -14.37         -79.39          75.99          78.51          128.9          30.23
  0.004084              -56.91          10.27          76.46          59.33          -16.9         -14.36         -79.45           76.0          78.41          128.8          30.31
  0.004278              -56.91          10.26          76.45          59.31         -16.89         -14.34         -79.52          76.01           78.3          128.8          30.39
  0.004473              -56.91          10.25          76.44          59.29         -16.88         -14.32         -79.59          76.02          78.18          128.7          30.48
  0.004667               -56.9          10.24          76.42          59.26         -16.86         -14.29         -79.67          76.03          78.05          128.7          30.58
  0.004862              -56.89          10.23          76.41          59.24         -16.84         -14.27         -79.76          76.05          77.89          128.6          30.69
  0.005056              -56.89          10.21           76.4          59.21         -16.82         -14.24         -79.87          76.06          77.72          128.6          30.81
  0.005251              -56.88          10.19          76.38          59.18          -16.8         -14.21         -79.98          76.08          77.53          128.5          30.95
  0.005445              -56.87          10.17          76.36          59.15         -16.77         -14.17         -80.11          76.09          77.32          128.4          31.11
  0.005639              -56.86          10.15          76.34          59.11         -16.74         -14.13         -80.26          76.12          77.07          128.3          31.29
  0.005834              -56.85          10.13          76.31          59.06         -16.71         -14.08         -80.42          76.14           76.8          128.2           31.5
  0.006028              -56.84           10.1          76.28          59.01         -16.67         -14.03         -80.62          76.17          76.48          128.1          31.73
  0.006223              -56.83          10.07          76.25          58.95         -16.63         -13.97         -80.84           76.2          76.11          127.9           32.0
  0.006417              -56.81          10.03          76.21          58.88         -16.58          -13.9         -81.09          76.23          75.68          127.8          32.32
  0.006612              -56.79          9.983          76.17          58.79         -16.52         -13.81          -81.4          76.28          75.17          127.6          32.69
  0.006806              -56.77          9.931          76.12           58.7         -16.45         -13.71         -81.75          76.33          74.58          127.3          33.12
  0.007001              -56.75          9.868          76.05          58.58         -16.36         -13.59         -82.17          76.39          73.88          127.0          33.64
  0.007195              -56.72          9.793          75.98          58.44         -16.26         -13.45         -82.68          76.46          73.03          126.7          34.26
   0.00739              -56.68          9.702          75.89          58.27         -16.14         -13.28         -83.29          76.55          72.01          126.3          35.01
  0.007584              -56.63          9.591          75.78          58.07         -15.99         -13.07         -84.04          76.65          70.76          125.8          35.92
  0.007779              -56.57          9.453          75.64          57.82         -15.81         -12.81         -84.96          76.78          69.23          125.2          37.06
  0.007973               -56.5          9.282          75.47           57.5         -15.58         -12.49         -86.11          76.95          67.31          124.5          38.47
  0.008167              -56.41          9.067          75.26           57.1         -15.29         -12.08         -87.56          77.15          64.89          123.5          40.24
  0.008362               -56.3          8.793          74.99           56.6         -14.92         -11.57         -89.41          77.41          61.81          122.3           42.5
  0.008556              -56.16          8.442          74.64          55.95         -14.45         -10.91         -91.76          77.75          57.88          120.7          45.39
  0.008751              -55.97          7.992          74.19          55.13         -13.85         -10.06         -94.79          78.18          52.83          118.8           49.1
  0.008945              -55.73          7.417          73.62          54.07         -13.08         -8.974         -98.66          78.72          46.38          116.2          53.83
   0.00914              -55.43          6.695           72.9          52.74         -12.11         -7.611         -103.5          79.41          38.27          113.0          59.79
  0.009334              -55.07          5.814          72.03          51.11         -10.93          -5.95         -109.4          80.25          28.39          109.1          67.05
  0.009529              -54.64          4.793          71.01          49.23         -9.559         -4.026         -116.3          81.22          16.93          104.6          75.46
  0.009723              -54.19          3.687          69.91           47.2         -8.077         -1.941         -123.8          82.28          4.527          99.73          84.57
  0.009918              -53.73          2.582          68.81          45.16         -6.595         0.1429         -131.2          83.33         -7.877          94.84          93.68
   0.01011               -53.3          1.561           67.8          43.28         -5.226          2.068         -138.1          84.31         -19.33          90.33          102.1
   0.01031              -52.94         0.6803          66.92          41.66         -4.045          3.728         -144.0          85.14         -29.22          86.44          109.4
    0.0105              -52.64       -0.04243          66.21          40.32         -3.076          5.091         -148.8          85.83         -37.33          83.24          115.3
    0.0107               -52.4        -0.6172          65.64          39.27         -2.305          6.175         -152.7          86.38         -43.78           80.7          120.0
   0.01089              -52.22         -1.067          65.19          38.44         -1.702          7.023         -155.7          86.81         -48.82          78.71          123.8
   0.01108              -52.07         -1.418          64.84          37.79         -1.232          7.685         -158.1          87.15         -52.76          77.16          126.6
   0.01128              -51.96         -1.692          64.57          37.29        -0.8647          8.201         -159.9          87.41         -55.83          75.95          128.9
   0.01147              -51.87         -1.907          64.35          36.89        -0.5758          8.607         -161.4          87.61         -58.25           75.0          130.7
